<?xml version="1.0" encoding="UTF-8" standalone="no"?>
<svg
   width="512"
   height="460.39731"
   viewBox="0 0 63.91808 57.476"
   version="1.1"
   id="svg17"
   xmlns="http://www.w3.org/2000/svg"
   xmlns:svg="http://www.w3.org/2000/svg"
   xmlns:rdf="http://www.w3.org/1999/02/22-rdf-syntax-ns#"
   xmlns:cc="http://creativecommons.org/ns#"
   xmlns:dc="http://purl.org/dc/elements/1.1/">
  <defs
     id="defs7">
    <linearGradient
       id="New_Gradient_Swatch_1"
       x1="64.010002"
       y1="30.27"
       x2="32.990002"
       y2="54.48"
       gradientUnits="userSpaceOnUse">
      <stop
         offset="0.18"
         stop-color="#0052cc"
         id="stop2" />
      <stop
         offset="1"
         stop-color="#2684ff"
         id="stop4" />
    </linearGradient>
  </defs>
  <title
     id="title9">Bitbucket-blue</title>
  <g
     id="Layer_2"
     data-name="Layer 2"
     transform="matrix(1.023974,0,0,1.023974,0.0264113,-3.2048683)">
    <g
       id="Blue"
       transform="translate(0,-3.13)">
      <path
         d="M 2,6.26 A 2,2 0 0 0 0,8.58 l 8.49,51.54 a 2.72,2.72 0 0 0 2.66,2.27 h 40.73 a 2,2 0 0 0 2,-1.68 L 62.37,8.59 a 2,2 0 0 0 -2,-2.32 z m 35.75,37.25 h -13 L 21.23,25.12 H 40.9 Z"
         fill="#2684ff"
         id="path11" />
      <path
         d="M 59.67,25.12 H 40.9 l -3.15,18.39 h -13 L 9.4,61.73 a 2.71,2.71 0 0 0 1.75,0.66 h 40.74 a 2,2 0 0 0 2,-1.68 z"
         fill="url(#New_Gradient_Swatch_1)"
         id="path13"
         style="fill:url(#New_Gradient_Swatch_1)" />
    </g>
  </g>
  <metadata
     id="metadata836">
    <rdf:RDF>
      <cc:Work
         rdf:about="">
        <dc:title>Bitbucket-blue</dc:title>
      </cc:Work>
    </rdf:RDF>
  </metadata>
</svg>
