
<svg
   width="512"
   height="461.37076"
   viewBox="0 0 63.91808 57.597525"
   version="1.1"
   id="svg9"
   xmlns="http://www.w3.org/2000/svg"
   xmlns:svg="http://www.w3.org/2000/svg"
   xmlns:rdf="http://www.w3.org/1999/02/22-rdf-syntax-ns#"
   xmlns:cc="http://creativecommons.org/ns#"
   xmlns:dc="http://purl.org/dc/elements/1.1/">
  <defs
     id="defs7" />
  <title
     id="title9">Bitbucket-blue</title>
  <path
     id="path11"
     style="fill:#ffffff;fill-opacity:1;stroke-width:8.21291;stroke-miterlimit:4;stroke-dasharray:none"
     transform="scale(0.12484)"
     d="m 486.05078,0 c -3.01633,-0.00779237 -5.94934,0.12802074 -8.57617,0.27148438 L 15.996094,0.19335938 C -6.9571229,2.1854244 0.83893269,26.234431 3.1582031,41.015625 L 69.300781,442.55469 c 6.804394,25.14091 33.316839,17.3332 52.185549,18.64453 h 304.18555 c 20.81987,-2.89056 16.87054,-25.93255 20.85937,-41.01758 13.5209,-83.00469 27.04159,-166.00899 40.5625,-249.01367 H 332.73633 L 309.61914,306.13281 H 202.84766 C 193.21084,255.78591 183.57432,205.43871 173.9375,155.0918 h 161.55273 l -0.01,0.0547 h 154.22265 c 7.37456,-45.27194 14.75044,-90.544096 22.125,-135.816402 C 513.75812,2.7718587 499.12157,0.03395787 486.05078,0 Z" />

</svg>
