<?xml version="1.0" encoding="UTF-8" standalone="no"?>
<svg
   width="512"
   height="499.36905"
   viewBox="0 0 512 499.36905"
   fill="none"
   version="1.1"
   id="svg4"
   xmlns="http://www.w3.org/2000/svg"
   xmlns:svg="http://www.w3.org/2000/svg">
  <defs
     id="defs8" />
  <path
     fill-rule="evenodd"
     clip-rule="evenodd"
     d="M 256,5.5576641e-6 C 114.56,5.5576641e-6 0,114.56001 0,256.00001 c 0,113.28 73.28,208.96 175.04,242.88 12.8,2.24 17.6,-5.44 17.6,-12.16 0,-6.08 -0.32,-26.24 -0.32,-47.68 -64.32,11.84 -80.96,-15.68 -86.08,-30.08 -2.88,-7.36 -15.36,-30.08 -26.24,-36.16 -8.96,-4.8 -21.76,-16.64 -0.32,-16.96 20.16,-0.32 34.56,18.56 39.36,26.24 23.04,38.72 59.84,27.84 74.56,21.12 2.24,-16.64 8.96,-27.84 16.32,-34.24 -56.96,-6.4 -116.48,-28.48 -116.48,-126.4 0,-27.84 9.92,-50.88 26.24,-68.8 -2.56,-6.4 -11.52,-32.64 2.56,-67.84 0,0 21.44,-6.720004 70.4,26.24 20.48,-5.76 42.24,-8.64 64,-8.64 21.76,0 43.52,2.88 64,8.64 48.96,-33.280004 70.4,-26.24 70.4,-26.24 14.08,35.2 5.12,61.44 2.56,67.84 16.32,17.92 26.24,40.64 26.24,68.8 0,98.24 -59.84,120 -116.8,126.4 9.28,8 17.28,23.36 17.28,47.36 0,34.24 -0.32,61.76 -0.32,70.4 0,6.72 4.8,14.72 17.6,12.16 101.12,-33.92 174.4,-129.92 174.4,-242.88 C 512,114.56001 397.44,5.5576641e-6 256,5.5576641e-6 Z"
     fill="#1B1F23"
     id="path2"
     style="fill:#f1502f;fill-opacity:1;stroke-width:32" />
</svg>
