<svg
   width="512"
   height="499.20001"
   version="1.1"
   id="svg8"
   xmlns="http://www.w3.org/2000/svg"
   xmlns:svg="http://www.w3.org/2000/svg">
  <view
     id="AdobeExperienceCloud"
     viewBox="0 0 250 244" />
  <path
     id="rect2"
     style="fill:#ffffff;fill-opacity:1;stroke-width:2.13333"
     d="M 90.666667,6.1035156e-6 C 40.437333,6.1035156e-6 0,40.437339 0,90.666673 V 408.53334 c 0,50.22934 40.437333,90.66667 90.666667,90.66667 H 421.33333 C 471.56267,499.20001 512,458.76268 512,408.53334 V 90.666673 C 512,40.437339 471.56267,6.1035156e-6 421.33333,6.1035156e-6 Z M 225.8,106.66668 h 60.4 a 14.139733,14.139733 0 0 1 13.29583,8.84166 l 105.45,249.39168 a 7.5029333,7.5029333 0 0 1 -6.82916,10.45833 h -60.8125 a 13.3184,13.3184 0 0 1 -12.47501,-8.03751 L 258.80834,212.95419 a 2.9098667,2.9098667 0 0 0 -5.57084,-0.075 l -41.14167,98.0125 a 3.488,3.488 0 0 0 3.2125,4.84166 h 45.22916 a 6.976,6.976 0 0 1 6.42085,4.25417 l 19.8,44.06251 a 8.1322667,8.1322667 0 0 1 -7.48333,11.30833 H 114.63333 a 7.5050667,7.5050667 0 0 1 -6.85416,-10.45833 l 104.725,-249.39168 A 14.1632,14.1632 0 0 1 225.8,106.66668 Z" />
</svg>
