<?xml version="1.0" encoding="UTF-8" standalone="no"?>
<svg
   width="512"
   height="499.20001"
   version="1.1"
   id="svg8"
   xmlns="http://www.w3.org/2000/svg"
   xmlns:svg="http://www.w3.org/2000/svg">
  <defs
     id="defs6" />
  <view
     id="AdobeExperienceCloud"
     viewBox="0 0 250 244" />
  <path
     id="rect2"
     style="fill:#fa0f00;fill-opacity:1;stroke-width:2.13333"
     d="M 90.666667,6.1035156e-6 C 40.437333,6.1035156e-6 0,40.437339 0,90.666673 V 408.53334 c 0,50.22934 40.437333,90.66667 90.666667,90.66667 H 421.33333 C 471.56267,499.20001 512,458.76268 512,408.53334 V 90.666673 C 512,40.437339 471.56267,6.1035156e-6 421.33333,6.1035156e-6 Z M 225.8,106.66668 h 60.4 a 14.139733,14.139733 0 0 1 13.29583,8.84166 l 105.45,249.39168 a 7.5029333,7.5029333 0 0 1 -6.82916,10.45833 h -60.8125 a 13.3184,13.3184 0 0 1 -12.47501,-8.03751 L 258.80834,212.95419 a 2.9098667,2.9098667 0 0 0 -5.57084,-0.075 l -41.14167,98.0125 a 3.488,3.488 0 0 0 3.2125,4.84166 h 45.22916 a 6.976,6.976 0 0 1 6.42085,4.25417 l 19.8,44.06251 a 8.1322667,8.1322667 0 0 1 -7.48333,11.30833 H 114.63333 a 7.5050667,7.5050667 0 0 1 -6.85416,-10.45833 l 104.725,-249.39168 A 14.1632,14.1632 0 0 1 225.8,106.66668 Z" />
  <path
     id="rect971"
     style="fill:#ffffff;fill-opacity:1;stroke-width:8.01"
     d="m 225.8,106.66668 a 14.1632,14.1632 0 0 0 -5.51953,1.04882 14.1632,14.1632 0 0 0 -4.67578,3.10938 14.1632,14.1632 0 0 0 -3.10156,4.68359 L 107.77852,364.90105 a 7.5050667,7.5050667 0 0 0 -0.36914,4.82422 7.5050667,7.5050667 0 0 0 2.65234,4.04687 7.5050667,7.5050667 0 0 0 4.57031,1.58594 h 164.64258 a 8.1322667,8.1322667 0 0 0 2.25977,-0.32031 8.1322667,8.1322667 0 0 0 2.08203,-0.9375 8.1322667,8.1322667 0 0 0 1.74023,-1.47852 8.1322667,8.1322667 0 0 0 1.25977,-1.90429 8.1322667,8.1322667 0 0 0 0.67969,-2.17774 8.1322667,8.1322667 0 0 0 0.0488,-2.2832 8.1322667,8.1322667 0 0 0 -0.58789,-2.20508 l -19.79883,-44.0625 a 6.976,6.976 0 0 0 -2.57031,-3.09375 6.976,6.976 0 0 0 -3.85156,-1.16211 h -45.22852 a 3.488,3.488 0 0 1 -2.90429,-1.55859 3.488,3.488 0 0 1 -0.3086,-3.28125 l 41.14258,-98.01367 a 2.9098667,2.9098667 0 0 1 1.60742,-1.78711 2.9098667,2.9098667 0 0 1 2.4043,0.0332 2.9098667,2.9098667 0 0 1 1.55859,1.83008 l 66.02149,154.36523 a 13.3184,13.3184 0 0 0 2.96094,4.28907 13.3184,13.3184 0 0 0 4.38281,2.82421 13.3184,13.3184 0 0 0 5.13086,0.92383 h 60.8125 a 7.5029333,7.5029333 0 0 0 2.41211,-0.41992 7.5029333,7.5029333 0 0 0 2.14648,-1.17578 7.5029333,7.5029333 0 0 0 1.65625,-1.80469 7.5029333,7.5029333 0 0 0 0.98633,-2.24023 7.5029333,7.5029333 0 0 0 0.21094,-2.43946 7.5029333,7.5029333 0 0 0 -0.58399,-2.37695 L 299.49531,115.50847 a 14.139733,14.139733 0 0 0 -3.09765,-4.68554 14.139733,14.139733 0 0 0 -4.67774,-3.11133 14.139733,14.139733 0 0 0 -5.52148,-1.04492 z" />
</svg>
