<svg
   height="512"
   width="512"
   version="1.1"
   id="svg1615"
   xmlns="http://www.w3.org/2000/svg"
   xmlns:svg="http://www.w3.org/2000/svg">
  <path
     id="rect2"
     style="fill:#ffffff;fill-opacity:1"
     d="M 76.800781 0 C 34.25358 0 0 34.25358 0 76.800781 L 0 435.19922 C 0 477.74642 34.25358 512 76.800781 512 L 435.19922 512 C 477.74642 512 512 477.74642 512 435.19922 L 512 76.800781 C 512 34.25358 477.74642 0 435.19922 0 L 76.800781 0 z M 120 95 L 206 95 C 218.742 95 229 105.258 229 118 L 229 368 C 229 380.742 218.742 391 206 391 L 120 391 C 107.258 391 97 380.742 97 368 L 97 118 C 97 105.258 107.258 95 120 95 z M 307 95 L 393 95 C 405.742 95 416 105.258 416 118 L 416 260 C 416 272.742 405.742 283 393 283 L 307 283 C 294.258 283 284 272.742 284 260 L 284 118 C 284 105.258 294.258 95 307 95 z " />
</svg>
