<?xml version="1.0" encoding="UTF-8" standalone="no"?>
<svg
   viewBox="0 0 512 512"
   version="1.1"
   id="svg14"
   width="512"
   height="512"
   xmlns="http://www.w3.org/2000/svg"
   xmlns:svg="http://www.w3.org/2000/svg">
  <defs
     id="defs9">
    <style
       id="style2">.cls-1{fill-rule:evenodd;fill:url(#linear-gradient);}</style>
    <linearGradient
       id="linear-gradient"
       x1="40"
       y1="70.470001"
       x2="40"
       y2="9.5299997"
       gradientUnits="userSpaceOnUse"
       gradientTransform="matrix(8.4017066,0,0,8.4017066,-80.068264,-80.068264)">
      <stop
         offset="0"
         stop-color="#0052cc"
         id="stop4" />
      <stop
         offset="1"
         stop-color="#2684ff"
         id="stop6" />
    </linearGradient>
  </defs>
  <path
     class="cls-1"
     d="M 451.08763,0 H 60.912373 A 60.99639,60.99639 0 0 0 0,60.912373 V 451.08763 A 60.99639,60.99639 0 0 0 60.912373,512 H 451.08763 A 60.99639,60.99639 0 0 0 512,451.08763 V 60.912373 A 60.99639,60.99639 0 0 0 451.08763,0 Z M 220.5448,368.7509 a 20.248113,20.248113 0 0 1 -20.24811,20.24812 H 114.76731 A 20.248113,20.248113 0 0 1 94.5192,368.7509 V 114.76731 A 20.248113,20.248113 0 0 1 114.76731,94.5192 h 85.52938 a 20.248113,20.248113 0 0 1 20.24811,20.24811 z m 196.936,-116.61569 a 20.248113,20.248113 0 0 1 -20.24811,20.6682 H 311.70331 A 20.248113,20.248113 0 0 1 291.4552,252.5553 V 114.76731 A 20.248113,20.248113 0 0 1 311.70331,94.5192 h 85.52938 a 20.248113,20.248113 0 0 1 20.24811,20.24811 z"
     id="path11"
     style="fill:url(#linear-gradient);stroke-width:8.40171" />
  <path
     id="rect1084"
     style="fill:#ffffff;fill-opacity:1;stroke-width:8.01"
     d="m 311.70285,94.5192 a 20.248113,20.248113 0 0 0 -7.74804,1.541016 20.248113,20.248113 0 0 0 -6.57031,4.388674 20.248113,20.248113 0 0 0 -4.38868,6.57031 20.248113,20.248113 0 0 0 -1.54101,7.74805 v 137.78711 a 20.248113,20.248113 0 0 0 1.54101,7.75 20.248113,20.248113 0 0 0 4.38868,6.56836 20.248113,20.248113 0 0 0 6.57031,4.38867 20.248113,20.248113 0 0 0 7.74804,1.54101 h 85.5293 a 20.248113,20.248113 0 0 0 2.91992,-0.21093 20.248113,20.248113 0 0 0 2.85938,-0.62891 20.248113,20.248113 0 0 0 2.73828,-1.03516 20.248113,20.248113 0 0 0 2.56055,-1.41992 20.248113,20.248113 0 0 0 2.32812,-1.77343 20.248113,20.248113 0 0 0 2.04883,-2.0918 20.248113,20.248113 0 0 0 1.72461,-2.36524 20.248113,20.248113 0 0 0 1.36719,-2.58789 20.248113,20.248113 0 0 0 0.98047,-2.75976 20.248113,20.248113 0 0 0 0.57031,-2.8711 20.248113,20.248113 0 0 0 0.15039,-2.92382 V 114.76725 a 20.248113,20.248113 0 0 0 -1.54102,-7.74805 20.248113,20.248113 0 0 0 -4.38867,-6.57031 20.248113,20.248113 0 0 0 -6.57031,-4.388674 20.248113,20.248113 0 0 0 -7.74805,-1.541016 z" />
  <path
     id="path1169"
     style="fill:#ffffff;fill-opacity:1;stroke-width:8.01"
     d="m 114.76731,94.5192 a 20.248113,20.248113 0 0 0 -7.74805,1.541016 20.248113,20.248113 0 0 0 -6.57031,4.388674 20.248113,20.248113 0 0 0 -4.388673,6.57031 20.248113,20.248113 0 0 0 -1.541016,7.74805 v 253.98242 a 20.248113,20.248113 0 0 0 1.541016,7.75 20.248113,20.248113 0 0 0 4.388673,6.56836 20.248113,20.248113 0 0 0 6.57031,4.38867 20.248113,20.248113 0 0 0 7.74805,1.54102 h 85.5293 a 20.248113,20.248113 0 0 0 2.88085,-0.20508 20.248113,20.248113 0 0 0 2.82422,-0.61328 20.248113,20.248113 0 0 0 2.70703,-1.00977 20.248113,20.248113 0 0 0 2.53516,-1.38476 20.248113,20.248113 0 0 0 2.3125,-1.73243 20.248113,20.248113 0 0 0 2.04297,-2.04296 20.248113,20.248113 0 0 0 1.73047,-2.3125 20.248113,20.248113 0 0 0 1.38476,-2.53516 20.248113,20.248113 0 0 0 1.00977,-2.70703 20.248113,20.248113 0 0 0 0.61328,-2.82227 20.248113,20.248113 0 0 0 0.20703,-2.88281 V 114.76725 a 20.248113,20.248113 0 0 0 -1.54101,-7.74805 20.248113,20.248113 0 0 0 -4.38868,-6.57031 20.248113,20.248113 0 0 0 -6.57031,-4.388674 20.248113,20.248113 0 0 0 -7.74804,-1.541016 z" />
</svg>
