<svg
   id="Ebene_1"
   height="512"
   data-name="Ebene 1"
   viewBox="0 0 512 7338.6664"
   version="1.1"
   width="512"
   xmlns="http://www.w3.org/2000/svg"
   xmlns:svg="http://www.w3.org/2000/svg">
  <defs
     id="defs25" />
  <path
     id="path1576"
     style="fill:#ffffff;fill-opacity:1;fill-rule:evenodd;stroke-width:114.666"
     d="M 256.00002,0 A 3669.3334,3669.3333 0 0 0 -3413.3332,3669.3333 3669.3334,3669.3333 0 0 0 256.00002,7338.6664 3669.3334,3669.3333 0 0 0 3925.3332,3669.3333 3669.3334,3669.3333 0 0 0 256.00002,0 Z M 2367.2551,1618.5469 a 452.21089,452.21088 0 0 1 451.948,452.1718 452.21089,452.21088 0 0 1 -451.948,452.1719 452.21089,452.21088 0 0 1 -452.8438,-452.1719 452.21089,452.21088 0 0 1 452.8438,-452.1718 z m -4431.6874,1142.6353 h 1218.78132 c 120.525,0 209.5758,37.4618 245.0104,207.1615 39.5325,188.7425 24.309,320.3201 -189.0208,335.2656 l -382.52092,28.4427 c 281.54712,1779.4354 1928.12952,2359.1346 2824.1146,442.5416 148.487,-317.2227 197.2089,-374.8491 359.6769,-334.5936 220.3206,54.7184 250.0504,168.8712 144.2292,487.7811 -774.0135,2361.8133 -3378.4572,2598.3501 -3889.4841,-556.7603 l -311.0782,22.3957 c -253.1024,18.0789 -262.4791,-195.1687 -262.4791,-313.7656 0,-234.7832 86.3293,-318.4687 242.7707,-318.4687 z" />
</svg>
