<svg
   height="512"
   viewBox="0 0 512 7338.6664"
   version="1.1"
   width="512"
   xmlns="http://www.w3.org/2000/svg"
   xmlnsSvg="http://www.w3.org/2000/svg">
  <path
     id="tuiCircle"
     style="fill:#092a5e;"
     d="M 256.00002,0 A 3669.3334,3669.3333 0 0 0 -3413.3332,3669.3333 3669.3334,3669.3333 0 0 0 256.00002,7338.6664 3669.3334,3669.3333 0 0 0 3925.3332,3669.3333 3669.3334,3669.3333 0 0 0 256.00002,0 Z M 2367.2551,1618.5469 a 452.21089,452.21088 0 0 1 451.948,452.1718 452.21089,452.21088 0 0 1 -451.948,452.1719 452.21089,452.21088 0 0 1 -452.8438,-452.1719 452.21089,452.21088 0 0 1 452.8438,-452.1718 z m -4431.6874,1142.6353 h 1218.78132 c 120.525,0 209.5758,37.4618 245.0104,207.1615 39.5325,188.7425 24.309,320.3201 -189.0208,335.2656 l -382.52092,28.4427 c 281.54712,1779.4354 1928.12952,2359.1346 2824.1146,442.5416 148.487,-317.2227 197.2089,-374.8491 359.6769,-334.5936 220.3206,54.7184 250.0504,168.8712 144.2292,487.7811 -774.0135,2361.8133 -3378.4572,2598.3501 -3889.4841,-556.7603 l -311.0782,22.3957 c -253.1024,18.0789 -262.4791,-195.1687 -262.4791,-313.7656 0,-234.7832 86.3293,-318.4687 242.7707,-318.4687 z" />
  <path
     id="rect2102"
     class="tuiSmile"
     style="fill:#bb0c12;"
     d="m -2064.4324,2761.1822 c -78.2207,10e-5 -138.925,20.9215 -180.0625,71.1908 -41.1375,50.2692 -62.7083,129.8863 -62.7083,247.278 0,59.2985 2.3553,142.2645 36.3372,208.1413 16.991,32.9382 41.8858,61.6022 78.3574,80.9049 36.4716,19.3027 84.5089,29.2391 147.7845,24.7194 l 311.0782,-22.3958 c 31.9392,197.1944 72.0617,381.1349 119.3978,552.1412 47.3359,171.0064 101.8888,329.0751 162.7057,474.5117 60.8169,145.4366 127.8929,278.2447 200.2748,398.7298 72.3819,120.4853 150.0739,228.6435 232.1048,324.7956 82.03082,96.1522 168.40392,180.2994 258.16799,252.737 89.76393,72.4375 182.91096,133.1849 278.49208,182.5261 95.58125,49.341 193.59516,87.2715 293.07753,114.1347 99.48236,26.8631 200.42815,42.6435 301.89582,47.6472 101.46753,5.0035 203.46625,-0.7554 305.00315,-16.9929 101.53707,-16.2378 202.62547,-42.9524 302.31577,-79.8132 99.6904,-36.8607 197.9616,-83.8644 293.88936,-140.7298 95.9277,-56.8653 189.5027,-123.6031 279.752,-199.8548 90.2492,-76.2516 177.1928,-162.0286 259.8475,-257.0481 82.6549,-95.0197 161.032,-199.2808 234.1764,-312.4499 73.1445,-113.1693 141.0482,-235.2476 202.7664,-365.9479 61.718,-130.7005 117.2414,-270.0131 165.6172,-417.6263 52.9105,-159.4549 71.9394,-267.7225 50.1946,-342.9642 -10.8724,-37.6209 -31.9358,-66.9877 -64.052,-90.3672 -32.1163,-23.3795 -75.2916,-40.7703 -130.3717,-54.4499 -40.6171,-10.0638 -74.1259,-14.0204 -103.8608,-9.3222 -29.7348,4.6981 -55.688,18.0383 -81.2128,42.552 -51.0499,49.0275 -100.3602,142.7526 -174.6037,301.364 -111.998,239.574 -235.7174,440.1422 -367.0396,604.2395 -131.3222,164.0973 -270.2611,291.719 -412.64316,385.4043 -142.3821,93.6852 -288.2095,153.4324 -433.38741,181.7702 -145.17775,28.3378 -289.70275,25.2822 -429.41204,-6.6627 -139.70929,-31.945 -274.60086,-92.7874 -400.57753,-179.9506 -125.97652,-87.1631 -243.01564,-200.6645 -346.99537,-337.9811 -103.97973,-137.3165 -194.91942,-298.4332 -268.63809,-480.8385 -73.7186,-182.4054 -130.2278,-386.0934 -165.4211,-608.5228 l 382.52083,-28.4426 c 53.33232,-3.7364 94.27162,-14.7519 125.08069,-32.1381 30.80892,-17.3862 51.48275,-41.1453 64.24801,-70.3229 25.53054,-58.3554 19.45836,-138.4335 -0.30816,-232.8047 -17.71743,-84.8499 -48.83352,-136.635 -90.59125,-167.213 -41.75759,-30.5778 -94.15667,-39.9485 -154.41931,-39.9485 z" />
  <path
     id="path2192"
     class="tuiSmile"
     style="fill:#bb0c12;"
     d="m 2367.2551,1618.5469 a 452.21089,452.21088 0 0 0 -320.1485,132.2193 452.21089,452.21088 0 0 0 -132.6954,319.9525 452.21089,452.21088 0 0 0 132.6954,319.9525 452.21089,452.21088 0 0 0 320.1485,132.2193 452.21089,452.21088 0 0 0 319.5884,-132.5273 452.21089,452.21088 0 0 0 132.3593,-319.6445 452.21089,452.21088 0 0 0 -132.3593,-319.6445 452.21089,452.21088 0 0 0 -319.5884,-132.5273 z" />
</svg>
